{"title":"Ek Doctor Ki Maut 1991 2CD 480p XViD 6Chnls ESubs - ClassiC","uid":8192768,"size":1467686079,"categoryP":"video","categoryS":"movies","magnet":"?xt=urn:btih:e8e42fe097070b123b1482310d68d94395ad377a&amp;dn=Ek+Doctor+Ki+Maut+1991+2CD+480p+XViD+6Chnls+ESubs+-+ClassiC&amp;tr=udp%3A%2F%2Ftracker.openbittorrent.com%3A80&amp;tr=udp%3A%2F%2Fopen.demonii.com%3A1337&amp;tr=udp%3A%2F%2Ftracker.coppersurfer.tk%3A6969&amp;tr=udp%3A%2F%2Fexodus.desync.com%3A6969","seeders":0,"leechers":2,"uploader":"brego45","files":2,"time":1361863096,"description":"\nCover \n &lt;a href=&quot;\nhttp://desibbrg.org/images/19253157376188302129.jpg&quot; rel=&quot;nofollow&quot; target=&quot;_NEW&quot;&gt;\nhttp://desibbrg.org/images/19253157376188302129.jpg&lt;/a&gt;\n\n\nScreens\n\n\n    &lt;a href=&quot;\thttp://desibbrg.org/images/74681149576038687810.png&quot; rel=&quot;nofollow&quot; target=&quot;_NEW&quot;&gt;\thttp://desibbrg.org/images/74681149576038687810.png&lt;/a&gt;\n    &lt;a href=&quot;\thttp://desibbrg.org/images/81600565816356357936.png&quot; rel=&quot;nofollow&quot; target=&quot;_NEW&quot;&gt;\thttp://desibbrg.org/images/81600565816356357936.png&lt;/a&gt;\n    &lt;a href=&quot;\thttp://desibbrg.org/images/06002040675457046563.png&quot; rel=&quot;nofollow&quot; target=&quot;_NEW&quot;&gt;\thttp://desibbrg.org/images/06002040675457046563.png&lt;/a&gt;\n    &lt;a href=&quot;\thttp://desibbrg.org/images/48585373013808302657.png&quot; rel=&quot;nofollow&quot; target=&quot;_NEW&quot;&gt;\thttp://desibbrg.org/images/48585373013808302657.png&lt;/a&gt;\n    &lt;a href=&quot;\thttp://desibbrg.org/images/60409408400191748226.png&quot; rel=&quot;nofollow&quot; target=&quot;_NEW&quot;&gt;\thttp://desibbrg.org/images/60409408400191748226.png&lt;/a&gt;\n    &lt;a href=&quot;\thttp://desibbrg.org/images/01277905075571500644.png&quot; rel=&quot;nofollow&quot; target=&quot;_NEW&quot;&gt;\thttp://desibbrg.org/images/01277905075571500644.png&lt;/a&gt;\n    &lt;a href=&quot;\thttp://desibbrg.org/images/30727441065438556588.png&quot; rel=&quot;nofollow&quot; target=&quot;_NEW&quot;&gt;\thttp://desibbrg.org/images/30727441065438556588.png&lt;/a&gt;\n    &lt;a href=&quot;\thttp://desibbrg.org/images/70228204604691915546.png&quot; rel=&quot;nofollow&quot; target=&quot;_NEW&quot;&gt;\thttp://desibbrg.org/images/70228204604691915546.png&lt;/a&gt;\n    &lt;a href=&quot;\thttp://desibbrg.org/images/32905317752816743503.png&quot; rel=&quot;nofollow&quot; target=&quot;_NEW&quot;&gt;\thttp://desibbrg.org/images/32905317752816743503.png&lt;/a&gt;\n    &lt;a href=&quot;\thttp://desibbrg.org/images/67200230447312519188.png&quot; rel=&quot;nofollow&quot; target=&quot;_NEW&quot;&gt;\thttp://desibbrg.org/images/67200230447312519188.png&lt;/a&gt;\n\nEk Doctor Ki Maut is a 1991 award winning film by noted Bengali director Tapan Sinha, which depicts the ostracism, bureaucratic negligence, reprimand and insult of a doctor and his research, instead of recognition.\n\n\nHowever, since this movie is a monumental masterpiece in the parallel cinema genre, I always wanted to release the DVD Rip for DBBians.\nSo here is the DVD Rip of my favourite movie after Sholay.\n\nSYNOPSIS\nAfter years of painstaking research at the cost of his personal life, Dr. Dipankar Roy (Pankaj Kapoor) discovers a vaccine for leprosy. The news is flashed over television and overnight, an insignificant junior doctor receives international recognition. Professional jealousy and abuse of power threaten Dr. Roy, even as the Secretary of Health reprimands him for breaking the news to the press. He is asked to report to the Director of Health. Professional colleagues Dr. Arijit Sen and Dr. Ramananda invite him to a lecture but it is merely a pretence to humiliate him. Dr. Roy suffers a mild heart attack but he refuses to go to the hospital. His wife (Shabana Azmi) and a few others like Dr. Kundu and Amulya (Irfan Khan) stand by Dr. Roy, but the harassment continues; a letter from a British foundation, John Anderson Foundation, is suppressed and Dr. Roy transferred to a remote village. The last straw is two American doctors receiving credit for discovering the same vaccine. Dr. Roy is shattered.\n\nAwards :\n38th National Film Awards, India\n1991 National Film Award for Second Best Feature Film\n1991 National Film Award for Best Directing: Tapan Sinha\n1991 National Film Award - Special Jury Award: Pankaj Kapoor (Dr. Dipankar Roy).\n\nBengal Film Journalists' Association Awards\n1991 Best Film\n1991 Best Director\n\nFilmfare Awards\n1992 Filmfare Best Screenplay Award: Tapan Sinha.\n\nimdb link : http://www.imdb.com/title/tt0345177/\n\nFormat : AVI\nFormat/Info : Audio Video Interleave\nFile size : 1.37 GiB\nDuration : 2h 12mn\nOverall bit rate : 1 473 Kbps\nWriting application : VirtualDubMod 1.5.10.2 (build 2542/release)\nWriting library : VirtualDubMod build 2542/release\n\nVideo\nID : 0\nFormat : MPEG-4 Visual\nFormat profile : Advanced Simple@L5\nFormat settings, BVOP : 2\nFormat settings, QPel : Yes\nFormat settings, GMC : No warppoints\nFormat settings, Matrix : Custom\nCodec ID : XVID\nCodec ID/Hint : XviD\nDuration : 2h 12mn\nBit rate : 1 016 Kbps\nWidth : 640 pixels\nHeight : 480 pixels\nDisplay aspect ratio : 4:3\nFrame rate : 23.976 fps\nColor space : YUV\nChroma subsampling : 4:2:0\nBit depth : 8 bits\nScan type : Progressive\nCompression mode : Lossy\nBits/(Pixel*Frame) : 0.138\nStream size : 965 MiB (69%)\nWriting library : XviD 1.2.1 (UTC 2008-12-04)\n\nAudio\nID : 1\nFormat : AC-3\nFormat/Info : Audio Coding 3\nMode extension : CM (complete main)\nCodec ID : 2000\nDuration : 2h 12mn\nBit rate mode : Constant\nBit rate : 448 Kbps\nChannel(s) : 6 channels\nChannel positions : Front: L C R, Side: L R, LFE\nSampling rate : 48.0 KHz\nBit depth : 16 bits\nCompression mode : Lossy\nDelay relative to video : 250ms\nStream size : 426 MiB (30%)\nAlignment : Split accross interleaves\nInterleave, duration : 42 ms (1.00 video frame)\nInterleave, preload duration : 500 ms\n","torrent":{"xt":"urn:btih:e8e42fe097070b123b1482310d68d94395ad377a","amp;dn":"Ek+Doctor+Ki+Maut+1991+2CD+480p+XViD+6Chnls+ESubs+-+ClassiC","amp;tr":["udp%3A%2F%2Ftracker.openbittorrent.com%3A80","udp%3A%2F%2Fopen.demonii.com%3A1337","udp%3A%2F%2Ftracker.coppersurfer.tk%3A6969","udp%3A%2F%2Fexodus.desync.com%3A6969"],"infoHash":"e8e42fe097070b123b1482310d68d94395ad377a","infoHashBuffer":{"type":"Buffer","data":[232,228,47,224,151,7,11,18,59,20,130,49,13,104,217,67,149,173,55,122]},"announce":[],"urlList":[]}}